#!OML:ASF H:\LiuWeirdWalks\Patient Classification 1\Patient 1\Session 1\male.ASF
:FULLY-SPECIFIED
:DEGREES
549
root -0.313893 17.8594 -18.3297 -1.57878 6.92285 10.9556
lowerback 8.2467 -2.30774 8.52103
upperback 2.38179 -2.11711 7.60522
thorax -2.15887 -1.05454 3.38446
lowerneck -20.0087 -0.347986 5.76302
upperneck 24.0115 4.17971 -23.7574
head 12.0225 -0.469947 -9.6302
rclavicle 2.38542e-014 3.81667e-014
rhumerus -16.8571 -24.4318 -24.7562
rradius 29.168
rwrist 1.96201
rhand -20.0312 -3.62991
rfingers 7.12502
rthumb 6.30971 -33.5159
lclavicle 2.38542e-014 3.81667e-014
lhumerus -17.8356 23.931 16.6916
lradius 34.6133
lwrist -2.31383
lhand -15.1128 1.74423
lfingers 7.12502
lthumb 11.0559 31.433
rfemur -6.21598 2.5633 9.40766
rtibia 38.0736
rfoot -19.23 -25.6991
rtoes -2.57972
lfemur -13.3299 5.88671 -20.5997
ltibia 41.2516
lfoot -4.71915 6.19592
ltoes -14.0423
550
root -0.305295 17.8597 -18.2834 -1.6369 6.74979 10.9396
lowerback 8.24819 -2.26066 8.62379
upperback 2.39016 -2.04596 7.65684
thorax -2.15186 -1.01926 3.3751
lowerneck -19.9681 -0.330814 5.75025
upperneck 23.9337 4.23135 -23.8886
head 12.001 -0.457056 -9.66849
rclavicle 2.38542e-015 0
rhumerus -16.9633 -24.6038 -24.7848
rradius 29.1287
rwrist 1.94986
rhand -20.0443 -3.63771
rfingers 7.12502
rthumb 6.29709 -33.5241
lclavicle 2.38542e-015 0
lhumerus -17.9056 24.0939 16.515
lradius 34.6665
lwrist -2.27818
lhand -15.1368 1.73658
lfingers 7.12502
lthumb 11.0328 31.4266
rfemur -5.94043 2.46936 9.36929
rtibia 37.8943
rfoot -19.2925 -25.4597
rtoes -2.72998
lfemur -13.4888 6.00804 -20.7669
ltibia 40.5753
lfoot -4.97435 6.43108
ltoes -14.2371
551
root -0.296507 17.8599 -18.2374 -1.69086 6.58369 10.9225
lowerback 8.25698 -2.22127 8.71875
upperback 2.39 -1.98356 7.70977
thorax -2.15754 -0.988672 3.37297
lowerneck -19.963 -0.303358 5.73761
upperneck 23.8917 4.30443 -24.0165
head 12.0056 -0.437059 -9.70829
rclavicle -7.15625e-015 6.36111e-015
rhumerus -17.0507 -24.7894 -24.8337
rradius 29.0635
rwrist 1.99849
rhand -20.0339 -3.60797
rfingers 7.12502
rthumb 6.30713 -33.4941
lclavicle -7.15625e-015 6.36111e-015
lhumerus -17.9969 24.2715 16.3189
lradius 34.7078
lwrist -2.24892
lhand -15.1208 1.69746
lfingers 7.12502
lthumb 11.0483 31.3867
rfemur -5.65919 2.38073 9.33397
rtibia 37.6958
rfoot -19.3422 -25.2382
rtoes -2.86552
lfemur -13.6601 6.12767 -20.9392
ltibia 39.9292
lfoot -5.20391 6.70496
ltoes -14.3528
552
root -0.287485 17.86 -18.1918 -1.73429 6.41983 10.8869
lowerback 8.26805 -2.18726 8.82533
upperback 2.3755 -1.92508 7.7674
thorax -2.17973 -0.960595 3.37046
lowerneck -19.9726 -0.283262 5.7155
upperneck 23.896 4.37404 -24.1279
head 12.0297 -0.420303 -9.74555
rclavicle -2.62396e-014 -1.90833e-014
rhumerus -17.1346 -24.9303 -24.9037
rradius 28.9887
rwrist 2.06395
rhand -20.0316 -3.57725
rfingers 7.12502
rthumb 6.30932 -33.4633
lclavicle -2.62396e-014 -1.90833e-014
lhumerus -18.1142 24.4427 16.1036
lradius 34.7539
lwrist -2.21795
lhand -15.0519 1.63417
lfingers 7.12502
lthumb 11.1147 31.3198
rfemur -5.3844 2.30557 9.32255
rtibia 37.4829
rfoot -19.3912 -25.0364
rtoes -2.97725
lfemur -13.8599 6.24346 -21.0991
ltibia 39.3237
lfoot -5.40981 7.01
ltoes -14.4188
553
root -0.278307 17.8602 -18.147 -1.76914 6.24127 10.8236
lowerback 8.2904 -2.15361 8.94986
upperback 2.35276 -1.86261 7.83452
thorax -2.21696 -0.93104 3.36854
lowerneck -19.9479 -0.268814 5.69706
upperneck 23.893 4.43231 -24.2405
head 12.0415 -0.40643 -9.7833
rclavicle 2.06736e-014 -7.31528e-014
rhumerus -17.2027 -25.1016 -24.9826
rradius 28.8835
rwrist 2.23152
rhand -19.9679 -3.47172
rfingers 7.12502
rthumb 6.37079 -33.3559
lclavicle 2.06736e-014 -7.31528e-014
lhumerus -18.2607 24.5794 15.8724
lradius 34.8116
lwrist -2.1603
lhand -14.9915 1.58732
lfingers 7.12502
lthumb 11.173 31.2698
rfemur -5.12339 2.25925 9.34546
rtibia 37.2583
rfoot -19.4435 -24.8502
rtoes -3.05596
lfemur -14.0894 6.3694 -21.2351
ltibia 38.7664
lfoot -5.60034 7.33706
ltoes -14.4446
554
root -0.268631 17.8606 -18.1028 -1.79897 6.06115 10.7454
lowerback 8.3258 -2.12176 9.07847
upperback 2.32417 -1.79903 7.91168
thorax -2.26732 -0.901368 3.37574
lowerneck -19.8888 -0.256333 5.70029
upperneck 23.8754 4.48493 -24.3829
head 12.0406 -0.393757 -9.83626
rclavicle -1.59028e-015 -4.77083e-014
rhumerus -17.2757 -25.1828 -25.0698
rradius 28.7943
rwrist 2.34978
rhand -19.9176 -3.38395
rfingers 7.12502
rthumb 6.41934 -33.2667
lclavicle -1.59028e-015 -4.77083e-014
lhumerus -18.4236 24.6931 15.6406
lradius 34.8691
lwrist -2.10074
lhand -14.9699 1.62257
lfingers 7.12502
lthumb 11.1938 31.304
rfemur -4.86388 2.21975 9.38367
rtibia 37.0207
rfoot -19.498 -24.6674
rtoes -3.12119
lfemur -14.3455 6.49883 -21.3634
ltibia 38.2623
lfoot -5.78791 7.66667
ltoes -14.4385
555
root -0.258697 17.8612 -18.0596 -1.81579 5.87576 10.6467
lowerback 8.36182 -2.08576 9.22048
upperback 2.29718 -1.72851 7.99603
thorax -2.31634 -0.868309 3.38249
lowerneck -19.8176 -0.24106 5.75254
upperneck 23.8358 4.5324 -24.5695
head 12.0303 -0.381728 -9.91658
rclavicle 2.22639e-014 5.725e-014
rhumerus -17.3554 -25.2282 -25.1631
rradius 28.7171
rwrist 2.42849
rhand -19.8554 -3.3097
rfingers 7.12502
rthumb 6.47939 -33.1906
lclavicle 2.22639e-014 5.725e-014
lhumerus -18.5701 24.8353 15.4127
lradius 34.8994
lwrist -2.09863
lhand -14.9556 1.63667
lfingers 7.12502
lthumb 11.2075 31.3173
rfemur -4.61873 2.1912 9.44432
rtibia 36.771
rfoot -19.5552 -24.4912
rtoes -3.16937
lfemur -14.6379 6.63068 -21.4763
ltibia 37.8107
lfoot -5.98605 7.98489
ltoes -14.4057
556
root -0.248544 17.8623 -18.0177 -1.82207 5.70044 10.5223
lowerback 8.40274 -2.0471 9.38751
upperback 2.27018 -1.65113 8.0848
thorax -2.36844 -0.832028 3.37974
lowerneck -19.7454 -0.214471 5.84599
upperneck 23.7988 4.59021 -24.7807
head 12.0247 -0.363195 -10.0153
rclavicle 4.37326e-015 -2.54444e-014
rhumerus -17.4623 -25.2374 -25.2549
rradius 28.659
rwrist 2.46939
rhand -19.7898 -3.26017
rfingers 7.12502
rthumb 6.54277 -33.1391
lclavicle 4.37326e-015 -2.54444e-014
lhumerus -18.6845 24.9844 15.1957
lradius 34.9119
lwrist -2.10862
lhand -14.9649 1.67232
lfingers 7.12502
lthumb 11.1986 31.3534
rfemur -4.38261 2.15901 9.53353
rtibia 36.5081
rfoot -19.6188 -24.3231
rtoes -3.1879
lfemur -14.9731 6.75063 -21.5687
ltibia 37.4093
lfoot -6.18965 8.26886
ltoes -14.3869
557
root -0.237906 17.8635 -17.9764 -1.82197 5.56498 10.4092
lowerback 8.44129 -2.01401 9.5417
upperback 2.24312 -1.58227 8.16993
thorax -2.41903 -0.799936 3.38103
lowerneck -19.6853 -0.174856 5.98609
upperneck 23.7343 4.65517 -25.0239
head 12.0151 -0.339492 -10.1345
rclavicle -1.03368e-014 9.54166e-015
rhumerus -17.6012 -25.1936 -25.3408
rradius 28.6294
rwrist 2.44678
rhand -19.7271 -3.26455
rfingers 7.12502
rthumb 6.60323 -33.1416
lclavicle -1.03368e-014 9.54166e-015
lhumerus -18.776 25.0989 14.9977
lradius 34.9209
lwrist -2.09668
lhand -14.9995 1.76485
lfingers 7.12502
lthumb 11.1653 31.4478
rfemur -4.13565 2.09445 9.60607
rtibia 36.2327
rfoot -19.6847 -24.1602
rtoes -3.19628
lfemur -15.3377 6.83376 -21.6828
ltibia 37.0548
lfoot -6.40056 8.50977
ltoes -14.3974
